<svg width="32" height="32" viewBox="0 0 32 32" fill="none" xmlns="http://www.w3.org/2000/svg">
<path fill-rule="evenodd" clip-rule="evenodd" d="M13.171 14.7349V17.2702C13.171 17.2702 15.7716 17.2653 16.8338 17.2653C16.2583 18.906 15.3687 19.8006 13.171 19.8006C10.9472 19.8006 9.21517 18.1005 9.21517 16.0001C9.21517 13.8997 10.9524 12.1996 13.171 12.1996C14.3484 12.1996 15.1071 12.5901 15.803 13.1337C16.3629 12.6049 16.3158 12.5308 17.7338 11.2656C16.5303 10.2327 14.9292 9.6001 13.1762 9.6001C9.43494 9.6001 6.40002 12.4665 6.40002 16.0001C6.40002 19.5337 9.43494 22.4001 13.1762 22.4001C18.7699 22.4001 20.1356 17.799 19.6804 14.7349C18.3565 14.7349 13.171 14.7349 13.171 14.7349ZM25.3971 15.1364V12.8001H23.7321V15.1364H21.3334V16.8014H23.7321V19.2001H25.3971V16.8014H27.7334V15.1364H25.3971Z" fill="#4154F1"/>
</svg>