<svg width="33" height="32" viewBox="0 0 33 32" fill="none" xmlns="http://www.w3.org/2000/svg">
<path fill-rule="evenodd" clip-rule="evenodd" d="M16.4999 5.33447C10.6095 5.33447 5.83435 10.1096 5.83435 16.0001C5.83435 21.8906 10.6095 26.6657 16.4999 26.6657C22.3904 26.6657 27.1656 21.8906 27.1656 16.0001C27.1655 10.1096 22.3903 5.33447 16.4999 5.33447ZM13.6543 21.1564H11.3126V13.5909H13.6543V21.1564ZM12.4723 12.6001C11.7075 12.6001 11.0875 11.9751 11.0875 11.2042C11.0875 10.4332 11.7076 9.80818 12.4723 9.80818C13.237 9.80818 13.857 10.4332 13.857 11.2042C13.8571 11.9751 13.2371 12.6001 12.4723 12.6001ZM22.43 21.1564H20.0996V17.1851C20.0996 16.0959 19.6859 15.4879 18.8246 15.4879C17.8873 15.4879 17.3976 16.1212 17.3976 17.1851V21.1564H15.1516V13.5909H17.3976V14.6098C17.3976 14.6098 18.0732 13.3601 19.6774 13.3601C21.2817 13.3601 22.4301 14.3397 22.4301 16.366L22.43 21.1564Z" fill="#4154F1"/>
</svg>