<?xml version="1.0" encoding="utf-8"?>
<!-- Generator: Adobe Illustrator 25.0.1, SVG Export Plug-In . SVG Version: 6.00 Build 0)  -->
<svg version="1.1" id="Layer_1" xmlns="http://www.w3.org/2000/svg" xmlns:xlink="http://www.w3.org/1999/xlink" x="0px" y="0px"
	 viewBox="0 0 247 73" style="enable-background:new 0 0 247 73;" xml:space="preserve">
<style type="text/css">
	.st0{fill:#3F51E9;}
	.st1{fill:#020202;}
</style>
<path class="st0" d="M12.8,43.6c-2.1,0-4.2-0.4-6.1-1.2C5,41.7,3.4,40.5,2.3,39c-1.2-1.6-2-3.4-2.2-5.3l6-0.9
	c0.3,1.6,1.3,3.1,2.6,4.1c1.3,0.9,2.9,1.4,4.5,1.4c0.9,0,1.9-0.1,2.8-0.4c0.8-0.3,1.6-0.7,2.2-1.3c0.4-0.4,0.7-0.9,0.8-1.4
	c0.1-0.5,0.1-1.1-0.1-1.6c-0.1-0.3-0.2-0.6-0.4-0.8c-0.3-0.3-0.6-0.5-0.9-0.7c-0.5-0.3-1-0.5-1.5-0.6l-7.9-2.3
	c-0.6-0.2-1.3-0.4-2.1-0.7c-0.8-0.3-1.6-0.8-2.3-1.3C3,26.2,2.4,25.4,2,24.5c-0.5-1-0.7-2.2-0.7-3.6c0-2.1,0.5-3.8,1.5-5.1
	c1.1-1.4,2.5-2.4,4.1-3c1.8-0.7,3.8-1,5.7-1c1.9,0,3.8,0.4,5.6,1.1c1.6,0.7,3,1.7,4.1,3c1.2,1.4,2,3.1,2.4,4.9l-6.2,1.1
	c-0.2-0.9-0.6-1.8-1.2-2.5c-0.6-0.7-1.3-1.2-2.2-1.6c-0.8-0.4-1.7-0.5-2.6-0.6c-0.9,0-1.7,0.1-2.6,0.4c-0.7,0.2-1.4,0.6-2,1.2
	c-0.2,0.2-0.4,0.5-0.6,0.9c-0.1,0.3-0.2,0.7-0.2,1c0,0.3,0,0.6,0.1,0.9c0.1,0.3,0.3,0.5,0.5,0.8c0.4,0.4,1,0.8,1.5,1
	c0.6,0.3,1.3,0.5,1.9,0.6l5.3,1.4c0.8,0.2,1.7,0.5,2.6,0.8c1,0.4,1.9,0.8,2.8,1.4c0.9,0.6,1.6,1.5,2.2,2.4c0.6,1,0.9,2.3,0.9,3.8
	c0,1.5-0.3,3-1,4.3c-0.7,1.2-1.6,2.3-2.8,3c-1.2,0.8-2.5,1.4-3.9,1.8C15.9,43.4,14.4,43.6,12.8,43.6z"/>
<path class="st0" d="M29.7,53.2V20h5.1v15.7h0.7v17.4H29.7z M40.9,43.6c-2.3,0-4.2-0.5-5.7-1.6c-1.5-1.1-2.7-2.6-3.4-4.3
	c-0.8-2-1.2-4.1-1.2-6.2c0-2.1,0.4-4.2,1.1-6.2c0.7-1.7,1.9-3.2,3.4-4.3c1.5-1.1,3.3-1.6,5.5-1.6c2,0,4,0.5,5.7,1.6
	c1.6,1.1,2.9,2.6,3.8,4.3c0.9,1.9,1.4,4.1,1.3,6.2c0,2.1-0.4,4.3-1.3,6.2c-0.8,1.8-2.1,3.3-3.7,4.3C44.8,43.1,42.9,43.6,40.9,43.6z
	 M40,38.5c1.2,0,2.3-0.3,3-0.9c0.8-0.7,1.4-1.5,1.8-2.5c0.4-1.1,0.6-2.3,0.6-3.5c0-1.2-0.2-2.4-0.6-3.5c-0.4-1-1-1.9-1.8-2.5
	c-0.9-0.7-2-1-3.2-0.9c-1.2,0-2.2,0.3-2.9,0.9c-0.8,0.6-1.3,1.5-1.6,2.4c-0.4,1.2-0.5,2.4-0.5,3.6c0,1.2,0.2,2.5,0.5,3.6
	c0.3,1,0.9,1.8,1.7,2.4C37.7,38.2,38.7,38.5,40,38.5L40,38.5z"/>
<path class="st0" d="M66.7,43.6c-2.2,0-4.3-0.5-6.2-1.5c-1.8-1-3.2-2.4-4.2-4.2c-1-1.9-1.6-4-1.5-6.1c0-2.5,0.5-4.7,1.5-6.6
	c0.9-1.8,2.3-3.3,4.1-4.3c1.8-1,3.9-1.6,6-1.5c2.4,0,4.4,0.6,6.1,1.7c1.7,1.2,3,2.8,3.7,4.8c0.8,2.1,1.1,4.5,0.8,7.3h-5.7V31
	c0-2.3-0.4-4-1.1-5c-0.7-1-2-1.5-3.6-1.5c-2,0-3.4,0.6-4.3,1.8c-0.9,1.2-1.4,3-1.4,5.3c0,2.1,0.5,3.8,1.4,5c0.9,1.2,2.3,1.8,4.1,1.8
	c1,0,2-0.2,2.9-0.7c0.8-0.5,1.5-1.3,1.8-2.1l5.8,1.7c-0.8,2-2.2,3.7-4.1,4.9C71,43,68.9,43.6,66.7,43.6z M59.2,33.1v-4.3h15.1v4.3
	H59.2z"/>
<path class="st0" d="M87.8,43.6c-1.6,0-3-0.3-4.2-0.9c-1.1-0.6-2-1.5-2.6-2.5c-0.6-1.1-0.9-2.3-0.9-3.5c0-1,0.2-2,0.5-2.9
	c0.3-0.9,0.9-1.7,1.6-2.3c0.9-0.7,1.9-1.3,2.9-1.7c1-0.4,2-0.6,3-0.8c1.2-0.2,2.5-0.5,4-0.7c1.5-0.2,3.1-0.5,4.9-0.7L95,28.6
	c0-1.4-0.3-2.4-1-3c-0.6-0.6-1.7-1-3.3-1c-0.9,0-1.8,0.2-2.6,0.6c-0.5,0.2-0.9,0.5-1.2,0.9c-0.3,0.4-0.6,0.8-0.7,1.3L81,25.8
	c0.6-1.9,1.7-3.5,3.3-4.6c1.6-1.2,3.8-1.8,6.5-1.8c1.8,0,3.7,0.3,5.4,0.9c1.5,0.6,2.8,1.8,3.6,3.2c0.4,0.8,0.7,1.7,0.8,2.6
	c0.1,0.9,0.1,1.9,0.1,2.9v14h-5v-4.7l0.7,1c-1.1,1.5-2.3,2.7-3.6,3.3C91.4,43.3,89.7,43.6,87.8,43.6z M89,39.1
	c0.9,0,1.8-0.2,2.7-0.6c0.7-0.3,1.2-0.8,1.7-1.3c0.3-0.4,0.6-0.8,0.9-1.2c0.3-0.7,0.5-1.4,0.5-2.2c0.1-0.8,0.1-1.5,0.1-2.1l1.7,0.4
	c-1.7,0.3-3.1,0.5-4.1,0.7c-1.1,0.2-1.9,0.4-2.6,0.5c-0.6,0.1-1.2,0.3-1.7,0.5c-0.5,0.2-0.9,0.4-1.4,0.7c-0.3,0.2-0.6,0.5-0.8,0.9
	c-0.2,0.3-0.2,0.7-0.2,1c0,0.5,0.1,1,0.4,1.3c0.3,0.4,0.7,0.7,1.1,0.9C87.8,39,88.4,39.1,89,39.1z"/>
<path class="st0" d="M106.1,43l0-30.6h5.8v18.7l7.7-11.1h7.1l-8.2,11.5l8.8,11.5h-7.5l-7.9-11.1V43H106.1z"/>
<path d="M133.4,43V12.3h5.8v25.2h13.1V43H133.4z"/>
<path d="M196.9,43.6c-2,0-3.9-0.5-5.5-1.6c-1.6-1.1-2.9-2.6-3.7-4.3c-0.9-1.9-1.4-4.1-1.3-6.2c0-2.2,0.4-4.3,1.3-6.2
	c0.8-1.8,2.1-3.3,3.8-4.3c1.7-1.1,3.7-1.6,5.7-1.6c2.2,0,4,0.5,5.5,1.6c1.5,1.1,2.7,2.6,3.4,4.3c0.8,2,1.2,4.1,1.1,6.2
	c0,2.1-0.4,4.2-1.2,6.2c-0.7,1.7-1.9,3.3-3.4,4.3C201.1,43.1,199.2,43.6,196.9,43.6z M197.4,53.8c-1.3,0-2.5-0.2-3.7-0.6
	c-1.1-0.4-2.2-1-3.1-1.7c-0.9-0.7-1.7-1.6-2.3-2.6l5.3-2.6c0.4,0.7,0.9,1.2,1.6,1.6c0.7,0.4,1.5,0.5,2.2,0.5c0.8,0,1.7-0.1,2.4-0.4
	c0.7-0.3,1.3-0.7,1.8-1.3c0.5-0.6,0.7-1.4,0.6-2.1v-6.7h0.7V20h5v24.5c0,0.6,0,1.1-0.1,1.6c0,0.5-0.1,1-0.3,1.5
	c-0.3,1.3-1,2.5-2,3.5c-1,0.9-2.3,1.6-3.6,2C200.6,53.6,199,53.8,197.4,53.8z M197.8,38.5c1.3,0,2.3-0.3,3.1-0.9
	c0.8-0.6,1.4-1.5,1.7-2.4c0.4-1.2,0.5-2.4,0.5-3.6c0-1.2-0.2-2.5-0.5-3.6c-0.3-1-0.8-1.8-1.6-2.5c-0.7-0.6-1.7-0.9-2.9-0.9
	c-1.3,0-2.3,0.3-3.2,0.9c-0.8,0.6-1.5,1.5-1.8,2.5c-0.4,1.1-0.6,2.3-0.6,3.5c0,1.2,0.2,2.4,0.6,3.5c0.3,1,0.9,1.9,1.8,2.5
	C195.7,38.2,196.7,38.5,197.8,38.5z"/>
<path d="M214.5,16.8v-5.1h5.7v5.1H214.5z M214.5,43V20h5.7v23H214.5z"/>
<path d="M236.6,43.6c-2.4,0-4.4-0.5-6.1-1.6c-1.7-1-3-2.6-3.9-4.3c-0.9-1.9-1.4-4-1.4-6.2c0-2.2,0.4-4.3,1.4-6.2
	c0.9-1.8,2.3-3.3,4-4.3c1.7-1.1,3.7-1.6,6.1-1.6c2.7,0,5,0.7,6.8,2.1c1.8,1.4,3.1,3.4,3.5,5.6l-5.8,1.5c-0.3-1.1-0.9-2.1-1.8-2.8
	c-0.8-0.7-1.8-1-2.8-1c-1.1,0-2.1,0.3-3,0.9c-0.8,0.6-1.4,1.4-1.7,2.4c-0.4,1.1-0.6,2.3-0.6,3.4c0,2,0.4,3.6,1.3,4.9
	c0.9,1.2,2.2,1.9,3.9,1.9c1.3,0,2.3-0.3,3-0.9c0.7-0.7,1.3-1.6,1.5-2.6L247,36c-0.6,2.4-1.9,4.3-3.7,5.6
	C241.5,43,239.3,43.6,236.6,43.6z"/>
<path class="st1" d="M170.4,9.8v3.4c0,0.3-0.1,0.4-0.3,0.4c-0.4,0-0.9,0-1.3,0c-0.4,0-0.9,0.2-1.2,0.5c-0.3,0.3-0.5,0.7-0.5,1.2
	c0,0.4,0.2,0.9,0.5,1.2c0.3,0.3,0.7,0.5,1.2,0.5c0.4,0,0.8,0,1.3,0c0.3,0,0.4,0.1,0.4,0.4c0,1.2,0,2.3,0,3.5c0,0.3,0.1,0.4,0.4,0.4
	c0.9,0,1.8,0,2.7,0c0.2,0,0.3-0.1,0.3-0.3c0.2-1.8,1.6-3.1,3.3-3.1c0.8,0,1.6,0.3,2.2,0.9c0.6,0.6,1,1.3,1.1,2.1
	c0,0.3,0.2,0.3,0.4,0.3h4.2c0.4,0,0.5,0.1,0.5,0.5c0.1,5.8-2.2,10.4-6.7,13.9c-0.7,0.6-1.5,1.2-2.2,1.8c-0.1,0.1-0.2,0.1-0.2,0.2
	c0,0.1-0.1,0.2-0.1,0.3c0,0.2,0,0.4,0,0.6c-0.1,0.7,0,1.3,0.8,1.8c1.5,1.1,1.1,3.3-0.5,4.1c-0.4,0.2-0.4,0.3-0.3,0.7
	c0.1,0.5,0,1-0.2,1.5c-0.2,0.5-0.6,0.8-1.1,1.1c-0.1,0.1-0.2,0.1-0.3,0.3c-0.1,0.1-0.1,0.2-0.2,0.4c-0.3,1.3-1,2.5-2,3.4
	c-1.1,0.9-2.4,1.3-3.7,1.3c-1.4,0-2.7-0.5-3.7-1.4c-1-0.9-1.7-2.1-2-3.4c0-0.1,0-0.2-0.1-0.3c-0.1-0.1-0.2-0.2-0.3-0.2
	c-0.5-0.2-0.9-0.7-1.2-1.2c-0.2-0.5-0.3-1.1-0.1-1.7c0.1-0.3,0-0.4-0.3-0.5c-0.4-0.2-0.8-0.5-1.1-0.9c-0.3-0.4-0.4-0.9-0.4-1.3
	c0-0.5,0.1-0.9,0.4-1.4c0.2-0.4,0.6-0.7,1-0.9c0.1,0,0.2-0.1,0.2-0.2c0.1-0.1,0.1-0.2,0.1-0.3c0.1-1.9,0.1-1.9-1.4-3.1
	c-1.7-1.4-3.5-2.8-4.8-4.7c-6-8.4-2.5-20.6,7-24.4c2.6-1.1,5.3-1.3,8.1-1.2c0.3,0,0.3,0.1,0.3,0.3C170.4,7.5,170.4,8.6,170.4,9.8z
	 M157.1,22.8c-1,0-2,0-2.9,0c-0.4,0-0.4,0.1-0.4,0.5c0.1,2,0.7,4,1.6,5.7c0.9,1.8,2.2,3.3,3.8,4.6c1.1,0.9,2.3,1.9,3.4,2.8
	c0.1,0.1,0.2,0.2,0.3,0.3c0.1,0.1,0.1,0.3,0.1,0.4c0,0.7,0,1.4,0,2.2c0,0.3,0.1,0.3,0.4,0.3c1.7,0,3.4,0,5.2,0
	c0.3,0,0.3-0.1,0.3-0.4v-6c0-0.2,0-0.3-0.3-0.4c-1.8-0.3-3.1-1.6-3.1-3.3c0-1.7,1.2-3.1,3-3.3c0.3,0,0.3-0.1,0.3-0.3
	c0-0.9,0-1.8,0-2.7c0-0.3-0.1-0.4-0.4-0.4h-3.2c-0.5,0-1.1,0.2-1.4-0.1c-0.3-0.3-0.1-0.9-0.1-1.4v-0.2c0-0.4-0.2-0.9-0.5-1.2
	c-0.3-0.3-0.7-0.5-1.2-0.5s-0.9,0.2-1.2,0.5c-0.3,0.3-0.5,0.7-0.5,1.2c0,0.5,0,0.9,0,1.4c0,0.3-0.1,0.3-0.4,0.3
	C159.1,22.8,158.1,22.8,157.1,22.8z M170.4,35.4v3.8c0,0.3,0.1,0.4,0.4,0.4c1.2,0,2.3,0,3.4,0c0.3,0,0.4-0.1,0.4-0.4
	c0-0.7,0-1.4,0-2.1c0-0.1,0-0.3,0.1-0.4c0.1-0.1,0.2-0.2,0.3-0.3c1.2-0.9,2.3-1.9,3.5-2.9c1.5-1.3,2.8-2.8,3.7-4.6
	c0.9-1.8,1.5-3.7,1.6-5.7c0-0.4-0.1-0.5-0.4-0.4c-1.4,0-2.8,0-4.2,0c-0.3,0-0.4-0.1-0.4-0.4c0-0.5,0-0.9,0-1.4
	c0-0.4-0.2-0.9-0.5-1.2c-0.3-0.3-0.7-0.5-1.2-0.5s-0.9,0.2-1.2,0.5c-0.3,0.3-0.5,0.7-0.5,1.2c0,0.4,0,0.8,0,1.3
	c0,0.4-0.1,0.5-0.4,0.5c-1.4,0-2.8,0-4.1,0c-0.4,0-0.5,0.1-0.5,0.4c0,1.4,0,2.8,0,4.3c0,0.3,0,0.4-0.3,0.4c-0.4,0-0.9,0-1.4,0
	c-0.4,0-0.9,0.2-1.2,0.5c-0.3,0.3-0.5,0.7-0.5,1.2s0.2,0.9,0.5,1.2c0.3,0.3,0.7,0.5,1.2,0.5c0.4,0,0.8,0,1.2,0
	c0.4,0,0.5,0.1,0.5,0.5C170.4,32.9,170.4,34.1,170.4,35.4z M168.8,9.8c0-0.6,0-1.1,0-1.7c0-0.3-0.1-0.4-0.4-0.4
	c-2.5,0-5.1,0.6-7.3,1.9c-4.2,2.5-6.7,6.2-7.3,11.1c0,0.4,0.1,0.4,0.4,0.4c1.2,0,2.3,0,3.5,0c0.3,0,0.7,0.1,1-0.1
	c0.2-0.1,0.1-0.5,0.2-0.8c0-0.1,0-0.1,0.1-0.1c0.2-0.7,0.7-1.3,1.4-1.8c0.6-0.4,1.4-0.6,2.2-0.5c0.8,0.1,1.5,0.4,2,0.9
	c0.5,0.5,0.9,1.2,1,2c0,0.2,0,0.4,0.3,0.4c0.9,0,1.8,0,2.8,0c0.2,0,0.3-0.1,0.3-0.3c0-0.6,0-1.3,0-1.9c0-0.3-0.1-0.3-0.3-0.4
	c-0.8-0.1-1.5-0.5-2.1-1.1c-0.5-0.6-0.8-1.4-0.8-2.2c0-0.8,0.3-1.6,0.8-2.2c0.5-0.6,1.3-1,2.1-1.1c0.3,0,0.3-0.2,0.3-0.4
	C168.8,10.9,168.8,10.3,168.8,9.8L168.8,9.8z M168.8,42.9h6.6c0.2,0,0.4-0.1,0.6-0.2c0.2-0.1,0.3-0.4,0.3-0.6c0,0,0,0,0-0.1
	c0-0.2-0.1-0.4-0.2-0.6c-0.2-0.2-0.4-0.2-0.6-0.2h-13.1c-0.1,0-0.3,0-0.4,0c-0.2,0-0.3,0.1-0.5,0.3c-0.1,0.1-0.2,0.3-0.2,0.5
	c0,0.2,0,0.4,0.1,0.5c0.1,0.2,0.2,0.3,0.4,0.3c0.2,0.1,0.4,0.1,0.6,0.1L168.8,42.9z M164.7,48c0.3,2,2.3,3.5,4.4,3.3
	c1.9-0.1,3.7-1.8,3.7-3.3H164.7z M168.8,46.3h4.8c0.7,0,1-0.3,1-0.8c0-0.5-0.4-0.8-1-0.8H164c-0.7,0-1,0.3-1.1,0.8
	c0,0.5,0.4,0.9,1.1,0.9L168.8,46.3z"/>
<path class="st0" d="M191.2,0.9h-11.5c-0.3,0-0.7,0.1-1,0.2c-0.3,0.1-0.6,0.3-0.8,0.5c-0.2,0.2-0.4,0.5-0.6,0.8
	c-0.1,0.3-0.2,0.6-0.2,1v0.1c0,0.4,0,0.8,0,1.3c0,0.3-0.1,0.4-0.4,0.4c-0.8,0.1-1.5,0.5-2.1,1.1c-0.5,0.6-0.8,1.4-0.8,2.2
	c0,0.8,0.3,1.6,0.8,2.2c0.5,0.6,1.3,1,2.1,1.1c0.3,0,0.4,0.1,0.4,0.4c0,1.1,0,2.2,0,3.4c0,0.4,0.1,0.5,0.5,0.5c1.5,0,3.1,0,4.6,0
	c0.5,0,1.2,0.2,1.5-0.1c0.3-0.3,0.1-0.9,0.1-1.4v-0.2c0-0.2,0-0.4,0.1-0.6c0.1-0.2,0.2-0.4,0.4-0.5c0.2-0.2,0.3-0.3,0.5-0.4
	c0.2-0.1,0.4-0.1,0.6-0.1c0.2,0,0.4,0,0.6,0.1s0.4,0.2,0.5,0.4c0.2,0.2,0.3,0.3,0.4,0.5c0.1,0.2,0.1,0.4,0.1,0.6c0,0.4,0,0.9,0,1.3
	c0,0.3,0.1,0.4,0.4,0.4c1.2,0,2.4,0,3.6,0c1.6,0,2.7-1.1,2.7-2.7V3.6C193.9,2,192.8,0.9,191.2,0.9z"/>
<path d="M66.9,68.8V54.5h1.9v14.3H66.9z M71.9,68.8V58.4h1.6v1.5c0.8-1.1,1.9-1.7,3.3-1.7c0.6,0,1.2,0.1,1.7,0.3
	c0.5,0.2,0.9,0.5,1.2,0.9c0.3,0.4,0.4,0.8,0.5,1.3c0.1,0.3,0.1,0.9,0.1,1.7v6.4h-1.8v-6.3c0-0.7-0.1-1.2-0.2-1.6
	c-0.1-0.4-0.4-0.6-0.7-0.8c-0.3-0.2-0.8-0.3-1.2-0.3c-0.7,0-1.4,0.2-1.9,0.7c-0.5,0.5-0.8,1.4-0.8,2.7v5.7H71.9z M83.4,68.8v-9h-1.6
	v-1.4h1.6v-1.1c0-0.7,0.1-1.2,0.2-1.6c0.2-0.5,0.5-0.8,0.9-1.1c0.4-0.3,1-0.4,1.8-0.4c0.5,0,1,0.1,1.6,0.2L87.7,56
	c-0.4-0.1-0.7-0.1-1-0.1c-0.5,0-0.9,0.1-1.1,0.3c-0.2,0.2-0.3,0.7-0.3,1.3v1h2v1.4h-2v9H83.4z M87.9,63.6c0-1.9,0.5-3.3,1.6-4.3
	c0.9-0.8,2-1.2,3.3-1.2c1.4,0,2.6,0.5,3.5,1.4c0.9,0.9,1.4,2.2,1.4,3.9c0,1.3-0.2,2.4-0.6,3.2c-0.4,0.8-1,1.4-1.7,1.8
	c-0.8,0.4-1.6,0.6-2.5,0.6c-1.5,0-2.6-0.5-3.5-1.4C88.4,66.7,87.9,65.4,87.9,63.6z M89.7,63.6c0,1.3,0.3,2.3,0.9,3
	c0.6,0.7,1.3,1,2.2,1c0.9,0,1.6-0.3,2.2-1c0.6-0.7,0.9-1.7,0.9-3c0-1.3-0.3-2.3-0.9-2.9c-0.6-0.7-1.3-1-2.2-1c-0.9,0-1.6,0.3-2.2,1
	C90,61.3,89.7,62.3,89.7,63.6z M99.7,68.8V58.4h1.6V60c0.4-0.7,0.8-1.2,1.1-1.5c0.3-0.2,0.7-0.4,1.1-0.4c0.6,0,1.2,0.2,1.8,0.6
	l-0.6,1.6c-0.4-0.3-0.9-0.4-1.3-0.4c-0.4,0-0.7,0.1-1,0.4c-0.3,0.2-0.5,0.5-0.7,1c-0.2,0.6-0.3,1.3-0.3,2.1v5.4H99.7z M106.4,68.8
	V58.4h1.6v1.5c0.3-0.5,0.8-0.9,1.3-1.2c0.5-0.3,1.2-0.5,1.8-0.5c0.8,0,1.4,0.2,1.9,0.5c0.5,0.3,0.8,0.8,1,1.3
	c0.8-1.2,1.9-1.8,3.2-1.8c1,0,1.8,0.3,2.4,0.9c0.6,0.6,0.8,1.4,0.8,2.6v7.1h-1.7v-6.5c0-0.7-0.1-1.2-0.2-1.5
	c-0.1-0.3-0.3-0.6-0.6-0.8c-0.3-0.2-0.7-0.3-1.1-0.3c-0.7,0-1.3,0.2-1.8,0.7c-0.5,0.5-0.7,1.3-0.7,2.3v6h-1.8v-6.7
	c0-0.8-0.1-1.4-0.4-1.8c-0.3-0.4-0.8-0.6-1.4-0.6c-0.5,0-1,0.1-1.4,0.4c-0.4,0.3-0.7,0.6-0.9,1.1s-0.3,1.2-0.3,2.2v5.4H106.4z
	 M129.8,67.5c-0.7,0.6-1.3,0.9-1.9,1.2c-0.6,0.2-1.2,0.3-1.9,0.3c-1.1,0-2-0.3-2.6-0.8c-0.6-0.6-0.9-1.3-0.9-2.1
	c0-0.5,0.1-1,0.3-1.4c0.2-0.4,0.5-0.8,0.9-1c0.4-0.3,0.8-0.4,1.3-0.6c0.3-0.1,0.9-0.2,1.6-0.3c1.4-0.2,2.5-0.4,3.1-0.6
	c0-0.2,0-0.4,0-0.5c0-0.7-0.2-1.2-0.5-1.5c-0.4-0.4-1.1-0.6-2-0.6c-0.8,0-1.4,0.1-1.8,0.4c-0.4,0.3-0.7,0.8-0.9,1.5l-1.7-0.2
	c0.2-0.7,0.4-1.3,0.8-1.8c0.4-0.5,0.9-0.8,1.6-1c0.7-0.2,1.5-0.4,2.4-0.4c0.9,0,1.6,0.1,2.2,0.3c0.6,0.2,1,0.5,1.2,0.8
	c0.3,0.3,0.4,0.7,0.5,1.2c0.1,0.3,0.1,0.8,0.1,1.6v2.3c0,1.6,0,2.7,0.1,3.1c0.1,0.4,0.2,0.8,0.4,1.2h-1.8
	C130,68.5,129.9,68,129.8,67.5z M129.7,63.6c-0.6,0.3-1.6,0.5-2.9,0.7c-0.7,0.1-1.2,0.2-1.5,0.4c-0.3,0.1-0.5,0.3-0.7,0.6
	c-0.2,0.2-0.2,0.5-0.2,0.8c0,0.5,0.2,0.9,0.5,1.2c0.4,0.3,0.9,0.5,1.6,0.5c0.7,0,1.3-0.1,1.8-0.4c0.5-0.3,0.9-0.7,1.2-1.2
	c0.2-0.4,0.3-1,0.3-1.8V63.6z M138,67.2l0.3,1.6c-0.5,0.1-0.9,0.2-1.3,0.2c-0.6,0-1.1-0.1-1.5-0.3c-0.4-0.2-0.6-0.5-0.7-0.8
	c-0.1-0.3-0.2-1-0.2-2.1v-6h-1.3v-1.4h1.3v-2.6l1.7-1.1v3.6h1.8v1.4h-1.8v6.1c0,0.5,0,0.8,0.1,1c0.1,0.1,0.2,0.3,0.3,0.3
	c0.1,0.1,0.3,0.1,0.6,0.1C137.4,67.3,137.7,67.3,138,67.2z M139.7,56.5v-2h1.8v2H139.7z M139.7,68.8V58.4h1.8v10.4H139.7z
	 M143.5,63.6c0-1.9,0.5-3.3,1.6-4.3c0.9-0.8,2-1.2,3.3-1.2c1.4,0,2.6,0.5,3.5,1.4c0.9,0.9,1.4,2.2,1.4,3.9c0,1.3-0.2,2.4-0.6,3.2
	c-0.4,0.8-1,1.4-1.7,1.8c-0.8,0.4-1.6,0.6-2.5,0.6c-1.5,0-2.6-0.5-3.5-1.4C144,66.7,143.5,65.4,143.5,63.6z M145.3,63.6
	c0,1.3,0.3,2.3,0.9,3c0.6,0.7,1.3,1,2.2,1c0.9,0,1.6-0.3,2.2-1c0.6-0.7,0.9-1.7,0.9-3c0-1.3-0.3-2.3-0.9-2.9c-0.6-0.7-1.3-1-2.2-1
	c-0.9,0-1.6,0.3-2.2,1C145.6,61.3,145.3,62.3,145.3,63.6z M155.3,68.8V58.4h1.6v1.5c0.8-1.1,1.9-1.7,3.3-1.7c0.6,0,1.2,0.1,1.7,0.3
	c0.5,0.2,0.9,0.5,1.2,0.9c0.3,0.4,0.4,0.8,0.5,1.3c0.1,0.3,0.1,0.9,0.1,1.7v6.4H162v-6.3c0-0.7-0.1-1.2-0.2-1.6
	c-0.1-0.4-0.4-0.6-0.7-0.8c-0.3-0.2-0.8-0.3-1.2-0.3c-0.7,0-1.4,0.2-1.9,0.7c-0.5,0.5-0.8,1.4-0.8,2.7v5.7H155.3z"/>
<path class="st0" d="M172.1,68.8l5.5-14.3h2l5.9,14.3h-2.2l-1.7-4.3h-6l-1.6,4.3H172.1z M176.2,62.9h4.9l-1.5-4
	c-0.5-1.2-0.8-2.2-1-3c-0.2,0.9-0.4,1.8-0.8,2.7L176.2,62.9z M186.8,68.8V58.4h1.6v1.5c0.8-1.1,1.9-1.7,3.3-1.7
	c0.6,0,1.2,0.1,1.7,0.3c0.5,0.2,0.9,0.5,1.2,0.9c0.3,0.4,0.4,0.8,0.5,1.3c0.1,0.3,0.1,0.9,0.1,1.7v6.4h-1.8v-6.3
	c0-0.7-0.1-1.2-0.2-1.6c-0.1-0.4-0.4-0.6-0.7-0.8c-0.3-0.2-0.8-0.3-1.2-0.3c-0.7,0-1.4,0.2-1.9,0.7c-0.5,0.5-0.8,1.4-0.8,2.7v5.7
	H186.8z M204.7,67.5c-0.7,0.6-1.3,0.9-1.9,1.2c-0.6,0.2-1.2,0.3-1.9,0.3c-1.1,0-2-0.3-2.6-0.8c-0.6-0.6-0.9-1.3-0.9-2.1
	c0-0.5,0.1-1,0.3-1.4c0.2-0.4,0.5-0.8,0.9-1c0.4-0.3,0.8-0.4,1.3-0.6c0.3-0.1,0.9-0.2,1.6-0.3c1.4-0.2,2.5-0.4,3.1-0.6
	c0-0.2,0-0.4,0-0.5c0-0.7-0.2-1.2-0.5-1.5c-0.5-0.4-1.1-0.6-2-0.6c-0.8,0-1.4,0.1-1.8,0.4c-0.4,0.3-0.7,0.8-0.9,1.5l-1.7-0.2
	c0.2-0.7,0.4-1.3,0.8-1.8c0.4-0.5,0.9-0.8,1.6-1c0.7-0.2,1.5-0.4,2.4-0.4c0.9,0,1.6,0.1,2.2,0.3c0.6,0.2,1,0.5,1.2,0.8
	c0.3,0.3,0.4,0.7,0.5,1.2c0.1,0.3,0.1,0.8,0.1,1.6v2.3c0,1.6,0,2.7,0.1,3.1c0.1,0.4,0.2,0.8,0.4,1.2H205
	C204.9,68.5,204.7,68,204.7,67.5z M204.5,63.6c-0.6,0.3-1.6,0.5-2.9,0.7c-0.7,0.1-1.2,0.2-1.5,0.4c-0.3,0.1-0.5,0.3-0.7,0.6
	c-0.2,0.2-0.2,0.5-0.2,0.8c0,0.5,0.2,0.9,0.5,1.2c0.4,0.3,0.9,0.5,1.6,0.5c0.7,0,1.3-0.1,1.8-0.4c0.5-0.3,0.9-0.7,1.2-1.2
	c0.2-0.4,0.3-1,0.3-1.8V63.6z M209,68.8V54.5h1.8v14.3H209z M213.4,72.8l-0.2-1.7c0.4,0.1,0.7,0.2,1,0.2c0.4,0,0.7-0.1,0.9-0.2
	c0.2-0.1,0.4-0.3,0.6-0.5c0.1-0.2,0.3-0.6,0.5-1.3c0-0.1,0.1-0.2,0.2-0.4l-3.9-10.4h1.9l2.2,6c0.3,0.8,0.5,1.6,0.8,2.4
	c0.2-0.8,0.4-1.6,0.7-2.4l2.2-6h1.8L218.1,69c-0.4,1.1-0.8,1.9-1,2.4c-0.3,0.6-0.7,1-1.1,1.3c-0.4,0.3-0.9,0.4-1.4,0.4
	C214.2,73,213.9,73,213.4,72.8z M222.8,65.7l1.7-0.3c0.1,0.7,0.4,1.2,0.8,1.6c0.5,0.4,1.1,0.6,1.9,0.6c0.8,0,1.4-0.2,1.8-0.5
	c0.4-0.3,0.6-0.7,0.6-1.2c0-0.4-0.2-0.7-0.5-0.9c-0.2-0.2-0.8-0.4-1.8-0.6c-1.3-0.3-2.2-0.6-2.7-0.8c-0.5-0.2-0.9-0.6-1.1-1
	c-0.3-0.4-0.4-0.9-0.4-1.4c0-0.5,0.1-0.9,0.3-1.3c0.2-0.4,0.5-0.7,0.9-1c0.3-0.2,0.6-0.4,1.1-0.5c0.5-0.1,1-0.2,1.5-0.2
	c0.8,0,1.5,0.1,2.1,0.4c0.6,0.2,1.1,0.6,1.4,1c0.3,0.4,0.5,0.9,0.6,1.6l-1.7,0.2c-0.1-0.5-0.3-1-0.7-1.2c-0.4-0.3-0.9-0.4-1.6-0.4
	c-0.8,0-1.4,0.1-1.7,0.4c-0.3,0.3-0.5,0.6-0.5,0.9c0,0.2,0.1,0.4,0.2,0.6c0.1,0.2,0.4,0.3,0.7,0.5c0.2,0.1,0.7,0.2,1.6,0.4
	c1.2,0.3,2.1,0.6,2.6,0.8c0.5,0.2,0.9,0.5,1.2,0.9c0.3,0.4,0.4,0.9,0.4,1.5c0,0.6-0.2,1.1-0.5,1.7c-0.3,0.5-0.8,0.9-1.5,1.2
	c-0.6,0.3-1.4,0.4-2.2,0.4c-1.3,0-2.4-0.3-3.1-0.8C223.5,67.7,223,66.8,222.8,65.7z M233.5,56.5v-2h1.8v2H233.5z M233.5,68.8V58.4
	h1.8v10.4H233.5z M237.3,65.7l1.7-0.3c0.1,0.7,0.4,1.2,0.8,1.6c0.4,0.4,1.1,0.6,1.9,0.6c0.8,0,1.4-0.2,1.8-0.5
	c0.4-0.3,0.6-0.7,0.6-1.2c0-0.4-0.2-0.7-0.5-0.9c-0.2-0.2-0.8-0.4-1.8-0.6c-1.3-0.3-2.2-0.6-2.7-0.8c-0.5-0.2-0.9-0.6-1.1-1
	c-0.3-0.4-0.4-0.9-0.4-1.4c0-0.5,0.1-0.9,0.3-1.3c0.2-0.4,0.5-0.7,0.9-1c0.3-0.2,0.6-0.4,1.1-0.5c0.5-0.1,1-0.2,1.5-0.2
	c0.8,0,1.5,0.1,2.1,0.4c0.6,0.2,1.1,0.6,1.4,1c0.3,0.4,0.5,0.9,0.6,1.6l-1.7,0.2c-0.1-0.5-0.3-1-0.7-1.2c-0.4-0.3-0.9-0.4-1.6-0.4
	c-0.8,0-1.4,0.1-1.7,0.4c-0.3,0.3-0.5,0.6-0.5,0.9c0,0.2,0.1,0.4,0.2,0.6c0.1,0.2,0.4,0.3,0.7,0.5c0.2,0.1,0.7,0.2,1.6,0.4
	c1.2,0.3,2.1,0.6,2.6,0.8c0.5,0.2,0.9,0.5,1.2,0.9c0.3,0.4,0.4,0.9,0.4,1.5c0,0.6-0.2,1.1-0.5,1.7c-0.3,0.5-0.8,0.9-1.5,1.2
	c-0.6,0.3-1.4,0.4-2.2,0.4c-1.3,0-2.4-0.3-3.1-0.8C237.9,67.7,237.5,66.8,237.3,65.7z"/>
</svg>
