<svg width="15" height="14" viewBox="0 0 15 14" fill="none" xmlns="http://www.w3.org/2000/svg">
<path d="M11.7028 9.85162C11.6006 9.74942 11.5866 9.57302 11.665 9.45122C12.281 8.50342 12.6422 7.37502 12.6422 6.16262C12.6422 2.81382 9.9178 0.0908203 6.5718 0.0908203C3.223 0.0908203 0.5 2.81382 0.5 6.16262C0.5 9.51002 3.223 12.233 6.5718 12.233C7.8752 12.233 9.082 11.8144 10.0732 11.1116C10.1894 11.0276 10.3644 11.0388 10.4666 11.1396L12.6366 13.3096C12.6506 13.3236 12.666 13.3376 12.6814 13.3488C12.7066 13.3698 12.8116 13.4678 12.9124 13.57L13.17 13.8262C13.2722 13.927 13.4374 13.927 13.5382 13.8262L14.423 12.9414C14.5252 12.8392 14.5252 12.674 14.4244 12.5718L11.7028 9.85162ZM10.244 8.99062C10.0438 9.25102 9.8184 9.48902 9.5692 9.70042C8.76 10.3878 7.7142 10.805 6.5718 10.805C4.0112 10.805 1.928 8.72182 1.928 6.16262C1.928 3.60342 4.0112 1.51882 6.5718 1.51882C9.131 1.51882 11.2142 3.60202 11.2142 6.16262C11.2142 7.22662 10.8488 8.20662 10.244 8.99062Z" fill="#8C8C8C"/>
</svg>
