<svg width="48" height="48" viewBox="0 0 48 48" fill="none" xmlns="http://www.w3.org/2000/svg">
<path fill-rule="evenodd" clip-rule="evenodd" d="M12.8 28.7998H35.2C36.08 28.7998 36.8 28.0798 36.8 27.1998C36.8 26.3198 36.08 25.5998 35.2 25.5998H12.8C11.92 25.5998 11.2 26.3198 11.2 27.1998C11.2 28.0798 11.92 28.7998 12.8 28.7998ZM12.8 35.1998H35.2C36.08 35.1998 36.8 34.4798 36.8 33.5998C36.8 32.7198 36.08 31.9998 35.2 31.9998H12.8C11.92 31.9998 11.2 32.7198 11.2 33.5998C11.2 34.4798 11.92 35.1998 12.8 35.1998ZM12.8 22.3998H35.2C36.08 22.3998 36.8 21.6798 36.8 20.7998C36.8 19.9198 36.08 19.1998 35.2 19.1998H12.8C11.92 19.1998 11.2 19.9198 11.2 20.7998C11.2 21.6798 11.92 22.3998 12.8 22.3998ZM11.2 14.3998C11.2 15.2798 11.92 15.9998 12.8 15.9998H35.2C36.08 15.9998 36.8 15.2798 36.8 14.3998C36.8 13.5198 36.08 12.7998 35.2 12.7998H12.8C11.92 12.7998 11.2 13.5198 11.2 14.3998Z" fill="#C3CAD9"/>
</svg>
